<?xml version="1.0" encoding="utf-8"?>
<!-- Generator: Adobe Illustrator 15.0.2, SVG Export Plug-In . SVG Version: 6.00 Build 0)  -->
<!DOCTYPE svg PUBLIC "-//W3C//DTD SVG 1.1//EN" "http://www.w3.org/Graphics/SVG/1.1/DTD/svg11.dtd">
<svg version="1.1"
	 id="svg1" inkscape:version="0.48.0 r9654" sodipodi:docname="Anonymous_Text_Page_Icon.svg" sodipodi:version="0.32" inkscape:export-filename="C:\Users\MaierMan\workspace\repagination\icon64.png" inkscape:export-xdpi="36" inkscape:export-ydpi="36" xmlns:inkscape="http://www.inkscape.org/namespaces/inkscape" xmlns:sodipodi="http://sodipodi.sourceforge.net/DTD/sodipodi-0.dtd" xmlns:rdf="http://www.w3.org/1999/02/22-rdf-syntax-ns#" xmlns:svg="http://www.w3.org/2000/svg" xmlns:cc="http://creativecommons.org/ns#" xmlns:dc="http://purl.org/dc/elements/1.1/"
	 xmlns="http://www.w3.org/2000/svg" xmlns:xlink="http://www.w3.org/1999/xlink" x="0px" y="0px" width="160px" height="160px"
	 viewBox="0 0 160 160" enable-background="new 0 0 160 160" xml:space="preserve">
<sodipodi:namedview  id="base" inkscape:cx="98.591383" borderopacity="1.0" bordercolor="#666666" inkscape:cy="81.422299" inkscape:pageopacity="0.0" inkscape:pageshadow="2" pagecolor="#ffffff" inkscape:window-height="848" inkscape:window-width="1600" inkscape:window-x="-8" inkscape:window-y="-8" inkscape:zoom="3.0239358" showborder="true" showgrid="true" fit-margin-left="0" snaptogrid="false" fit-margin-top="0" borderlayer="true" fit-margin-right="0" fit-margin-bottom="0" inkscape:window-maximized="1" inkscape:current-layer="svg1" showguides="true">
	<inkscape:grid  id="grid3106" type="xygrid" visible="true" empspacing="5" enabled="true" snapvisiblegridlinesonly="true">
		</inkscape:grid>
</sodipodi:namedview>
<path id="path930" sodipodi:nodetypes="cccccccccccccccc" inkscape:connector-curvature="0" fill="#FFFFFF" d="M14.798,2.868v33.093
	v33.094v33.094v33.093h30.2H75.2H105.4h30.2v-33.093V69.055V35.961L105.4,2.868H75.2H44.999H14.798z"/>
<g id="g1552" transform="matrix(0.304171,0,0,0.297572,-38.756996,-115.94955)">
	
		<linearGradient id="path1505_1_" gradientUnits="userSpaceOnUse" x1="2720.5642" y1="-4085.3022" x2="3024.05" y2="-3682.7996" gradientTransform="matrix(0.2869 0 0 -0.3155 -565.2271 -432.1069)">
		<stop  offset="0" style="stop-color:#000000;stop-opacity:0.0955"/>
		<stop  offset="1" style="stop-color:#000000;stop-opacity:0"/>
	</linearGradient>
	
		<path id="path1505" sodipodi:nodetypes="cccccccccccccccc" inkscape:connector-curvature="0" fill="url(#path1505_1_)" fill-opacity="0.75" d="
		M172.716,407.868v110.128v110.128v110.128v110.13h97.969h97.969h97.971h97.967v-110.13V628.124V517.996l-97.967-110.128h-97.971
		h-97.969H172.716z"/>
	
		<linearGradient id="path1538_1_" gradientUnits="userSpaceOnUse" x1="2709.9436" y1="-4099.8076" x2="3017.7007" y2="-3691.6401" gradientTransform="matrix(0.2871 0 0 -0.3152 -565.0842 -432.6138)">
		<stop  offset="0" style="stop-color:#000000;stop-opacity:0.0955"/>
		<stop  offset="1" style="stop-color:#000000;stop-opacity:0"/>
	</linearGradient>
	<path id="path1538" inkscape:connector-curvature="0" fill="url(#path1538_1_)" fill-opacity="0.75" d="M169.803,406.404
		c0,148.298,0,296.595,0,444.895c132.572,0,265.143,0,397.714,0c0-111.478,0-222.958,0-334.438
		c-33.188-37.31-66.366-74.637-99.589-111.92c-99.377,0-198.75,0-298.126,0C169.803,405.24,169.803,406.217,169.803,406.404z"/>
	
		<linearGradient id="path1543_1_" gradientUnits="userSpaceOnUse" x1="2699.3391" y1="-4114.2837" x2="3011.3813" y2="-3700.4329" gradientTransform="matrix(0.2873 0 0 -0.315 -564.9439 -433.1118)">
		<stop  offset="0" style="stop-color:#000000;stop-opacity:0.0955"/>
		<stop  offset="1" style="stop-color:#000000;stop-opacity:0"/>
	</linearGradient>
	<path id="path1543" inkscape:connector-curvature="0" fill="url(#path1543_1_)" fill-opacity="0.75" d="M166.875,403.477
		c0,150.249,0,300.5,0,450.749c134.524,0,269.047,0,403.57,0c0-112.831,0-225.661,0-338.492
		c-33.73-37.914-67.457-75.837-101.223-113.721c-100.783,0-201.564,0-302.347,0C166.875,402.313,166.875,403.288,166.875,403.477z"
		/>
</g>
<linearGradient id="rect900_1_" gradientUnits="userSpaceOnUse" x1="1219.9062" y1="-729.6343" x2="880.0834" y2="-1143.7935" gradientTransform="matrix(0.2835 0 0 -0.3105 -234.8276 -205.0511)">
	<stop  offset="0" style="stop-color:#DADADA"/>
	<stop  offset="0.3492" style="stop-color:#F1F1F1"/>
	<stop  offset="1" style="stop-color:#F0F0F0"/>
</linearGradient>
<path id="rect900" sodipodi:nodetypes="cccccccccccccccc" inkscape:connector-curvature="0" fill="url(#rect900_1_)" stroke="#000000" stroke-width="0.4265" stroke-opacity="0.3648" d="
	M14.848,3.032v33.093v33.094v33.094v33.093h30.2h30.201h30.2h30.2v-33.093V69.219V36.125l-30.2-33.093h-30.2H45.048H14.848z"/>
<linearGradient id="path1500_1_" gradientUnits="userSpaceOnUse" x1="1220.5938" y1="-858.1699" x2="898.9441" y2="-1022.4779" gradientTransform="matrix(0.2934 0 0 -0.3 -232.581 -210.0764)">
	<stop  offset="0" style="stop-color:#FFFFFF"/>
	<stop  offset="1" style="stop-color:#FFFFFF;stop-opacity:0"/>
</linearGradient>
<path id="path1500" sodipodi:nodetypes="cccczc" inkscape:connector-curvature="0" fill="url(#path1500_1_)" d="M15.734,13.232
	l-0.544,121.33h118.608l0.068-29.992c-2.652,1.02-29.449-36.93-63.181-35.297C36.922,70.905,45.658,18.128,15.734,13.232z"/>
<rect id="rect1535" x="23.166" y="117.034" fill="#A3A4A3" fill-opacity="0.434" width="95.742" height="4.041"/>
<rect id="rect1536" x="23.166" y="98.097" fill="#A3A4A3" fill-opacity="0.434" width="74.679" height="4.04"/>
<rect id="rect1537" x="23.166" y="79.158" fill="#C2C2C2" fill-opacity="0.434" width="89.261" height="4.042"/>
<rect id="rect1538" x="23.166" y="60.221" fill="#A3A4A3" fill-opacity="0.434" width="49.565" height="4.04"/>
<rect id="rect1539" x="23.166" y="41.283" fill="#858585" fill-opacity="0.434" width="77.109" height="4.04"/>
<linearGradient id="path906_1_" gradientUnits="userSpaceOnUse" x1="1270.1738" y1="-707.0747" x2="1162.7123" y2="-813.6255" gradientTransform="matrix(0.2834 0 0 -0.3106 -234.8365 -205.0313)">
	<stop  offset="0" style="stop-color:#DADADA"/>
	<stop  offset="0.3492" style="stop-color:#F1F1F1"/>
	<stop  offset="1" style="stop-color:#F0F0F0"/>
</linearGradient>
<path id="path906" sodipodi:nodetypes="cccc" inkscape:connector-curvature="0" fill="url(#path906_1_)" d="M135.649,36.125
	c-9.104-2.695-20.902-2.313-29.814-0.776c1.538-9.875,1.73-22.25-0.386-32.317L135.649,36.125L135.649,36.125z"/>
<rect id="rect1541" x="23.166" y="22.123" fill="#A3A4A3" fill-opacity="0.434" width="49.565" height="4.04"/>
<linearGradient id="path1441_1_" gradientUnits="userSpaceOnUse" x1="-201.0239" y1="462.8418" x2="-201.7497" y2="440.5003">
	<stop  offset="0" style="stop-color:#000000"/>
	<stop  offset="1" style="stop-color:#FFFFFF;stop-opacity:0.6598"/>
</linearGradient>
<path id="path1441" sodipodi:nodetypes="cccccccc" inkscape:connector-curvature="0" inkscape:r_cx="true" inkscape:r_cy="true" opacity="0.15" fill="none" stroke="url(#path1441_1_)" stroke-width="3" stroke-linecap="square" stroke-linejoin="round" enable-background="new    " d="
	M89.747,76.85l52.222,31.333l-52.222,31.333V76.85z M36.034,76.85l52.222,31.333l-52.222,31.333V76.85z"/>
<linearGradient id="path2915_1_" gradientUnits="userSpaceOnUse" x1="-216.5723" y1="273.4922" x2="-216.3589" y2="271.522" gradientTransform="matrix(-3.3128 0 0 -3.3128 -647.3329 981.1292)">
	<stop  offset="0" style="stop-color:#000000"/>
	<stop  offset="1" style="stop-color:#FFFFFF;stop-opacity:0"/>
</linearGradient>
<path id="path2915" sodipodi:nodetypes="ccccccccc" inkscape:connector-curvature="0" inkscape:r_cx="true" inkscape:r_cy="true" opacity="0.0703" fill="url(#path2915_1_)" enable-background="new    " d="
	M36.034,76.85l3.543,2.145l-3.543-0.373V76.85z M89.747,77.596l1.399,0.093l11.844,7.087l-13.243-1.212V77.596z"/>
<g>
	
		<path id="path5515" inkscape:export-filename="/home/lapo/Desktop/Grafica/Icone/media-actions.png" inkscape:export-xdpi="90" inkscape:export-ydpi="90" sodipodi:nodetypes="cccc" inkscape:connector-curvature="0" inkscape:r_cx="true" inkscape:r_cy="true" fill="#3B536D" d="
		M106.195,93.885l52.222,31.334l-52.222,31.332V93.885z"/>
	
		<path id="use5517" inkscape:export-filename="/home/lapo/Desktop/Grafica/Icone/media-actions.png" inkscape:export-xdpi="90" inkscape:export-ydpi="90" sodipodi:nodetypes="cccc" inkscape:connector-curvature="0" inkscape:r_cx="true" inkscape:r_cy="true" fill="#3B536D" d="
		M52.482,93.885l52.221,31.334l-52.221,31.332V93.885z"/>
	
		<path id="path5525" sodipodi:nodetypes="cccccccccccccccc" inkscape:connector-curvature="0" inkscape:r_cx="true" inkscape:r_cy="true" fill="#FFFFFF" d="
		M107.688,96.496l47.839,28.723l-47.839,28.722V96.496z M53.974,96.496l47.839,28.723L53.974,153.94V96.496z M110.671,101.811
		v46.812l39.073-23.405L110.671,101.811z M56.958,101.811v46.812l39.074-23.405L56.958,101.811z"/>
	
		<path id="path3197" sodipodi:nodetypes="cccc" inkscape:connector-curvature="0" inkscape:r_cx="true" inkscape:r_cy="true" opacity="0.5611" fill="#FFFFFF" enable-background="new    " d="
		M139.282,118.605l-28.423-16.7v18.031L139.282,118.605z"/>
	
		<path id="path4072" sodipodi:nodetypes="cccc" inkscape:connector-curvature="0" inkscape:r_cx="true" inkscape:r_cy="true" opacity="0.5611" fill="#FFFFFF" enable-background="new    " d="
		M93.599,122.853l-36.639-20.947v23.488L93.599,122.853z"/>
</g>
</svg>
