<?xml version="1.0" encoding="utf-8"?>
<!-- Generator: Adobe Illustrator 15.0.2, SVG Export Plug-In . SVG Version: 6.00 Build 0)  -->
<!DOCTYPE svg PUBLIC "-//W3C//DTD SVG 1.1//EN" "http://www.w3.org/Graphics/SVG/1.1/DTD/svg11.dtd">
<svg version="1.1"
	 id="svg1" inkscape:version="0.48.0 r9654" sodipodi:docname="Anonymous_Text_Page_Icon.svg" sodipodi:version="0.32" inkscape:export-filename="C:\Users\MaierMan\workspace\repagination\icon64.png" inkscape:export-xdpi="36" inkscape:export-ydpi="36" xmlns:dc="http://purl.org/dc/elements/1.1/" xmlns:cc="http://creativecommons.org/ns#" xmlns:rdf="http://www.w3.org/1999/02/22-rdf-syntax-ns#" xmlns:svg="http://www.w3.org/2000/svg" xmlns:sodipodi="http://sodipodi.sourceforge.net/DTD/sodipodi-0.dtd" xmlns:inkscape="http://www.inkscape.org/namespaces/inkscape"
	 xmlns="http://www.w3.org/2000/svg" xmlns:xlink="http://www.w3.org/1999/xlink" x="0px" y="0px" width="160px" height="160px"
	 viewBox="0 0 160 160" enable-background="new 0 0 160 160" xml:space="preserve">
<sodipodi:namedview  borderopacity="1.0" bordercolor="#666666" inkscape:cx="98.591383" id="base" inkscape:cy="81.422299" inkscape:pageopacity="0.0" inkscape:pageshadow="2" pagecolor="#ffffff" showborder="true" inkscape:window-height="848" inkscape:window-width="1600" inkscape:window-x="-8" inkscape:window-y="-8" inkscape:zoom="3.0239358" fit-margin-top="0" showgrid="true" fit-margin-left="0" snaptogrid="false" borderlayer="true" fit-margin-right="0" fit-margin-bottom="0" inkscape:window-maximized="1" inkscape:current-layer="svg1" showguides="true">
	<inkscape:grid  id="grid3106" visible="true" empspacing="5" enabled="true" snapvisiblegridlinesonly="true" type="xygrid">
		</inkscape:grid>
</sodipodi:namedview>
<path id="path930" sodipodi:nodetypes="cccccccccccccccc" inkscape:connector-curvature="0" fill="#FFFFFF" d="M14.798,2.868v33.093
	v33.094v33.093v33.094h30.2H75.2h30.2H135.6v-33.094V69.055V35.961L105.4,2.868H75.2H44.999H14.798z"/>
<g id="g1552" transform="matrix(0.304171,0,0,0.297572,-38.756996,-115.94955)">
	
		<linearGradient id="path1505_1_" gradientUnits="userSpaceOnUse" x1="16800.4121" y1="26993.5312" x2="17103.9004" y2="26591.0254" gradientTransform="matrix(0.0873 0 0 0.0939 -1253.0103 -1679.2715)">
		<stop  offset="0" style="stop-color:#000000;stop-opacity:0.0955"/>
		<stop  offset="1" style="stop-color:#000000;stop-opacity:0"/>
	</linearGradient>
	
		<path id="path1505" sodipodi:nodetypes="cccccccccccccccc" inkscape:connector-curvature="0" fill="url(#path1505_1_)" fill-opacity="0.75" d="
		M172.716,407.868v110.128v110.128v110.128v110.133h97.969h97.969h97.971h97.967V738.251V628.124V517.996l-97.967-110.128h-97.971
		h-97.969H172.716L172.716,407.868z"/>
	
		<linearGradient id="path1538_1_" gradientUnits="userSpaceOnUse" x1="16760.7461" y1="27053.8906" x2="17068.502" y2="26645.7246" gradientTransform="matrix(0.0873 0 0 0.0938 -1252.8293 -1679.6008)">
		<stop  offset="0" style="stop-color:#000000;stop-opacity:0.0955"/>
		<stop  offset="1" style="stop-color:#000000;stop-opacity:0"/>
	</linearGradient>
	<path id="path1538" inkscape:connector-curvature="0" fill="url(#path1538_1_)" fill-opacity="0.75" d="M169.803,406.404
		c0,148.298,0,296.595,0,444.895c132.572,0,265.143,0,397.714,0c0-111.478,0-222.957,0-334.437
		c-33.188-37.31-66.366-74.637-99.589-111.92c-99.377,0-198.75,0-298.127,0C169.803,405.24,169.803,406.217,169.803,406.404z"/>
	
		<linearGradient id="path1543_1_" gradientUnits="userSpaceOnUse" x1="16719.4355" y1="27109.3262" x2="17031.4785" y2="26695.4746" gradientTransform="matrix(0.0874 0 0 0.0937 -1252.6532 -1679.9807)">
		<stop  offset="0" style="stop-color:#000000;stop-opacity:0.0955"/>
		<stop  offset="1" style="stop-color:#000000;stop-opacity:0"/>
	</linearGradient>
	<path id="path1543" inkscape:connector-curvature="0" fill="url(#path1543_1_)" fill-opacity="0.75" d="M166.875,403.477
		c0,150.249,0,300.5,0,450.749c134.524,0,269.047,0,403.57,0c0-112.831,0-225.661,0-338.492
		c-33.73-37.914-67.457-75.837-101.223-113.721c-100.783,0-201.564,0-302.347,0C166.875,402.313,166.875,403.288,166.875,403.477z"
		/>
</g>
<g id="rect900" sodipodi:nodetypes="cccccccccccccccc" inkscape:connector-curvature="0">
	
		<image overflow="visible" opacity="0.44" width="158" height="170" xlink:href="AFE7FA18.png"  transform="matrix(1 0 0 1 0.5 -11.5)">
	</image>
	<g>
		
			<linearGradient id="SVGID_1_" gradientUnits="userSpaceOnUse" x1="1789.7822" y1="2222.2041" x2="1449.9594" y2="2636.3633" gradientTransform="matrix(0.2835 0 0 0.3105 -396.3986 -668.5043)">
			<stop  offset="0" style="stop-color:#DADADA"/>
			<stop  offset="0.3492" style="stop-color:#F1F1F1"/>
			<stop  offset="1" style="stop-color:#F0F0F0"/>
		</linearGradient>
		<polygon fill="url(#SVGID_1_)" points="14.848,3.032 14.848,36.125 14.848,69.219 14.848,102.312 14.848,135.406 45.048,135.406 
			75.249,135.406 105.449,135.406 135.648,135.406 135.648,102.312 135.648,69.219 135.648,36.125 105.449,3.032 75.249,3.032 
			45.048,3.032 		"/>
		<polygon opacity="0.3648" fill="none" stroke="#000000" stroke-width="0.4265" points="14.848,3.032 14.848,36.125 14.848,69.219 
			14.848,102.312 14.848,135.406 45.048,135.406 75.249,135.406 105.449,135.406 135.648,135.406 135.648,102.312 135.648,69.219 
			135.648,36.125 105.449,3.032 75.249,3.032 45.048,3.032 		"/>
	</g>
</g>
<linearGradient id="path1500_1_" gradientUnits="userSpaceOnUse" x1="1763.6689" y1="2386.3418" x2="1442.0216" y2="2550.6487" gradientTransform="matrix(0.2934 0 0 0.3 -391.9191 -668.5264)">
	<stop  offset="0" style="stop-color:#FFFFFF"/>
	<stop  offset="1" style="stop-color:#FFFFFF;stop-opacity:0"/>
</linearGradient>
<path id="path1500" sodipodi:nodetypes="cccczc" inkscape:connector-curvature="0" fill="url(#path1500_1_)" d="M15.734,13.232
	L15.19,134.562h118.608l0.068-29.992c-2.652,1.02-29.449-36.93-63.181-35.297C36.922,70.905,45.658,18.128,15.734,13.232z"/>
<rect id="rect1535" x="23.166" y="117.034" fill="#A3A4A3" fill-opacity="0.434" width="95.742" height="4.041"/>
<rect id="rect1536" x="23.166" y="98.098" fill="#A3A4A3" fill-opacity="0.434" width="74.68" height="4.039"/>
<rect id="rect1537" x="23.166" y="79.158" fill="#C2C2C2" fill-opacity="0.434" width="89.261" height="4.042"/>
<rect id="rect1538" x="23.166" y="60.221" fill="#A3A4A3" fill-opacity="0.434" width="49.565" height="4.04"/>
<rect id="rect1539" x="23.166" y="41.283" fill="#858585" fill-opacity="0.434" width="77.109" height="4.04"/>
<linearGradient id="path906_1_" gradientUnits="userSpaceOnUse" x1="1840.3867" y1="2199.3701" x2="1732.9252" y2="2305.9209" gradientTransform="matrix(0.2834 0 0 0.3106 -396.4295 -668.5319)">
	<stop  offset="0" style="stop-color:#DADADA"/>
	<stop  offset="0.3492" style="stop-color:#F1F1F1"/>
	<stop  offset="1" style="stop-color:#F0F0F0"/>
</linearGradient>
<path id="path906" sodipodi:nodetypes="cccc" inkscape:connector-curvature="0" fill="url(#path906_1_)" d="M135.648,36.125
	c-9.104-2.695-20.901-2.313-29.813-0.776c1.538-9.875,1.729-22.25-0.386-32.317L135.648,36.125L135.648,36.125z"/>
<rect id="rect1541" x="23.166" y="22.123" fill="#A3A4A3" fill-opacity="0.434" width="49.565" height="4.04"/>
<linearGradient id="path1441_1_" gradientUnits="userSpaceOnUse" x1="-426.5239" y1="13.6582" x2="-427.2497" y2="35.9997">
	<stop  offset="0" style="stop-color:#000000"/>
	<stop  offset="1" style="stop-color:#FFFFFF;stop-opacity:0.6598"/>
</linearGradient>
<path id="path1441" sodipodi:nodetypes="cccccccc" inkscape:connector-curvature="0" inkscape:r_cx="true" inkscape:r_cy="true" opacity="0.15" fill="none" stroke="url(#path1441_1_)" stroke-width="3" stroke-linecap="square" stroke-linejoin="round" enable-background="new    " d="
	M89.747,76.85l52.222,31.333l-52.222,31.332V76.85z M36.034,76.85l52.222,31.333l-52.222,31.332V76.85z"/>
<linearGradient id="path2915_1_" gradientUnits="userSpaceOnUse" x1="-510.1431" y1="298.2461" x2="-509.9297" y2="300.2162" gradientTransform="matrix(-3.3128 0 0 3.3128 -1619.8704 -912.9202)">
	<stop  offset="0" style="stop-color:#000000"/>
	<stop  offset="1" style="stop-color:#FFFFFF;stop-opacity:0"/>
</linearGradient>
<path id="path2915" sodipodi:nodetypes="ccccccccc" inkscape:connector-curvature="0" inkscape:r_cx="true" inkscape:r_cy="true" opacity="0.0703" fill="url(#path2915_1_)" enable-background="new    " d="
	M36.034,76.85l3.543,2.145l-3.543-0.373V76.85z M89.747,77.596l1.399,0.093l11.844,7.086l-13.243-1.211V77.596z"/>
<g>
	
		<path id="path5515" sodipodi:nodetypes="cccc" inkscape:connector-curvature="0" inkscape:export-filename="/home/lapo/Desktop/Grafica/Icone/media-actions.png" inkscape:export-xdpi="90" inkscape:export-ydpi="90" inkscape:r_cx="true" inkscape:r_cy="true" fill="#3B536D" d="
		M106.195,93.885l52.222,31.334l-52.222,31.332V93.885z"/>
	
		<path id="use5517" sodipodi:nodetypes="cccc" inkscape:connector-curvature="0" inkscape:export-filename="/home/lapo/Desktop/Grafica/Icone/media-actions.png" inkscape:export-xdpi="90" inkscape:export-ydpi="90" inkscape:r_cx="true" inkscape:r_cy="true" fill="#3B536D" d="
		M52.482,93.885l52.221,31.334l-52.221,31.332V93.885z"/>
	
		<path id="path5525" sodipodi:nodetypes="cccccccccccccccc" inkscape:connector-curvature="0" inkscape:r_cx="true" inkscape:r_cy="true" fill="#FFFFFF" d="
		M107.688,96.496l47.84,28.723l-47.84,28.723V96.496z M53.974,96.496l47.838,28.723l-47.838,28.721V96.496z M110.671,101.811v46.812
		l39.073-23.405L110.671,101.811z M56.958,101.811v46.812l39.074-23.405L56.958,101.811z"/>
	
		<path id="path3197" sodipodi:nodetypes="cccc" inkscape:connector-curvature="0" inkscape:r_cx="true" inkscape:r_cy="true" opacity="0.5611" fill="#FFFFFF" enable-background="new    " d="
		M139.282,118.605l-28.423-16.7v18.03L139.282,118.605z"/>
	
		<path id="path4072" sodipodi:nodetypes="cccc" inkscape:connector-curvature="0" inkscape:r_cx="true" inkscape:r_cy="true" opacity="0.5611" fill="#FFFFFF" enable-background="new    " d="
		M93.6,122.853l-36.64-20.947v23.488L93.6,122.853z"/>
</g>
</svg>
